<mxfile host="app.diagrams.net" modified="2023-01-18T08:10:57.167Z" agent="5.0 (Windows NT 10.0; Win64; x64) AppleWebKit/537.36 (KHTML, like Gecko) Chrome/109.0.0.0 Safari/537.36" etag="LBKlUq56diCftNa5aZe8" version="20.8.5" type="github" pages="2">
  <diagram id="C5RBs43oDa-KdzZeNtuy" name="Page-1">
    <mxGraphModel dx="1434" dy="739" grid="1" gridSize="10" guides="1" tooltips="1" connect="1" arrows="1" fold="1" page="1" pageScale="1" pageWidth="827" pageHeight="1169" math="0" shadow="0">
      <root>
        <mxCell id="WIyWlLk6GJQsqaUBKTNV-0" />
        <mxCell id="WIyWlLk6GJQsqaUBKTNV-1" parent="WIyWlLk6GJQsqaUBKTNV-0" />
        <mxCell id="R4OV0yaDhmhnuvs-qSDv-0" value="verilmis 3 ededden cut olanlarin sayini tapan alqoritm" style="rounded=0;whiteSpace=wrap;html=1;" vertex="1" parent="WIyWlLk6GJQsqaUBKTNV-1">
          <mxGeometry x="50" y="50" width="120" height="60" as="geometry" />
        </mxCell>
        <mxCell id="R4OV0yaDhmhnuvs-qSDv-3" style="edgeStyle=orthogonalEdgeStyle;rounded=0;orthogonalLoop=1;jettySize=auto;html=1;entryX=0.5;entryY=0;entryDx=0;entryDy=0;" edge="1" parent="WIyWlLk6GJQsqaUBKTNV-1" source="R4OV0yaDhmhnuvs-qSDv-1" target="R4OV0yaDhmhnuvs-qSDv-2">
          <mxGeometry relative="1" as="geometry" />
        </mxCell>
        <mxCell id="R4OV0yaDhmhnuvs-qSDv-1" value="START" style="ellipse;whiteSpace=wrap;html=1;" vertex="1" parent="WIyWlLk6GJQsqaUBKTNV-1">
          <mxGeometry x="294" y="70" width="120" height="80" as="geometry" />
        </mxCell>
        <mxCell id="R4OV0yaDhmhnuvs-qSDv-5" style="edgeStyle=orthogonalEdgeStyle;rounded=0;orthogonalLoop=1;jettySize=auto;html=1;" edge="1" parent="WIyWlLk6GJQsqaUBKTNV-1" source="R4OV0yaDhmhnuvs-qSDv-2" target="R4OV0yaDhmhnuvs-qSDv-4">
          <mxGeometry relative="1" as="geometry" />
        </mxCell>
        <mxCell id="R4OV0yaDhmhnuvs-qSDv-2" value="A, B,C&lt;br&gt;D=0" style="shape=parallelogram;perimeter=parallelogramPerimeter;whiteSpace=wrap;html=1;fixedSize=1;" vertex="1" parent="WIyWlLk6GJQsqaUBKTNV-1">
          <mxGeometry x="294" y="180" width="120" height="60" as="geometry" />
        </mxCell>
        <mxCell id="R4OV0yaDhmhnuvs-qSDv-9" value="true" style="edgeStyle=orthogonalEdgeStyle;rounded=0;orthogonalLoop=1;jettySize=auto;html=1;" edge="1" parent="WIyWlLk6GJQsqaUBKTNV-1" source="R4OV0yaDhmhnuvs-qSDv-4" target="R4OV0yaDhmhnuvs-qSDv-8">
          <mxGeometry relative="1" as="geometry" />
        </mxCell>
        <mxCell id="R4OV0yaDhmhnuvs-qSDv-24" value="TRUE" style="edgeStyle=orthogonalEdgeStyle;rounded=0;orthogonalLoop=1;jettySize=auto;html=1;" edge="1" parent="WIyWlLk6GJQsqaUBKTNV-1" source="R4OV0yaDhmhnuvs-qSDv-4" target="R4OV0yaDhmhnuvs-qSDv-23">
          <mxGeometry relative="1" as="geometry" />
        </mxCell>
        <mxCell id="R4OV0yaDhmhnuvs-qSDv-4" value="A%2==0" style="rhombus;whiteSpace=wrap;html=1;" vertex="1" parent="WIyWlLk6GJQsqaUBKTNV-1">
          <mxGeometry x="314" y="280" width="80" height="80" as="geometry" />
        </mxCell>
        <mxCell id="R4OV0yaDhmhnuvs-qSDv-20" value="FALSE" style="edgeStyle=orthogonalEdgeStyle;rounded=0;orthogonalLoop=1;jettySize=auto;html=1;" edge="1" parent="WIyWlLk6GJQsqaUBKTNV-1" source="R4OV0yaDhmhnuvs-qSDv-8" target="R4OV0yaDhmhnuvs-qSDv-4">
          <mxGeometry relative="1" as="geometry" />
        </mxCell>
        <mxCell id="R4OV0yaDhmhnuvs-qSDv-22" value="TRUE" style="edgeStyle=orthogonalEdgeStyle;rounded=0;orthogonalLoop=1;jettySize=auto;html=1;entryX=0.008;entryY=0.633;entryDx=0;entryDy=0;entryPerimeter=0;" edge="1" parent="WIyWlLk6GJQsqaUBKTNV-1" source="R4OV0yaDhmhnuvs-qSDv-8" target="R4OV0yaDhmhnuvs-qSDv-21">
          <mxGeometry relative="1" as="geometry" />
        </mxCell>
        <mxCell id="R4OV0yaDhmhnuvs-qSDv-27" style="edgeStyle=orthogonalEdgeStyle;rounded=0;orthogonalLoop=1;jettySize=auto;html=1;" edge="1" parent="WIyWlLk6GJQsqaUBKTNV-1" source="R4OV0yaDhmhnuvs-qSDv-8" target="R4OV0yaDhmhnuvs-qSDv-12">
          <mxGeometry relative="1" as="geometry" />
        </mxCell>
        <mxCell id="R4OV0yaDhmhnuvs-qSDv-8" value="B%2==0" style="rhombus;whiteSpace=wrap;html=1;" vertex="1" parent="WIyWlLk6GJQsqaUBKTNV-1">
          <mxGeometry x="320" y="470" width="80" height="80" as="geometry" />
        </mxCell>
        <mxCell id="R4OV0yaDhmhnuvs-qSDv-15" style="edgeStyle=orthogonalEdgeStyle;rounded=0;orthogonalLoop=1;jettySize=auto;html=1;" edge="1" parent="WIyWlLk6GJQsqaUBKTNV-1" source="R4OV0yaDhmhnuvs-qSDv-12">
          <mxGeometry relative="1" as="geometry">
            <mxPoint x="340" y="810" as="targetPoint" />
          </mxGeometry>
        </mxCell>
        <mxCell id="R4OV0yaDhmhnuvs-qSDv-26" value="TRUE" style="edgeStyle=orthogonalEdgeStyle;rounded=0;orthogonalLoop=1;jettySize=auto;html=1;" edge="1" parent="WIyWlLk6GJQsqaUBKTNV-1" source="R4OV0yaDhmhnuvs-qSDv-12" target="R4OV0yaDhmhnuvs-qSDv-25">
          <mxGeometry relative="1" as="geometry" />
        </mxCell>
        <mxCell id="R4OV0yaDhmhnuvs-qSDv-28" value="FALSE" style="edgeStyle=orthogonalEdgeStyle;rounded=0;orthogonalLoop=1;jettySize=auto;html=1;" edge="1" parent="WIyWlLk6GJQsqaUBKTNV-1" source="R4OV0yaDhmhnuvs-qSDv-12" target="R4OV0yaDhmhnuvs-qSDv-8">
          <mxGeometry relative="1" as="geometry" />
        </mxCell>
        <mxCell id="R4OV0yaDhmhnuvs-qSDv-12" value="C%2==0" style="rhombus;whiteSpace=wrap;html=1;" vertex="1" parent="WIyWlLk6GJQsqaUBKTNV-1">
          <mxGeometry x="320" y="620" width="80" height="75" as="geometry" />
        </mxCell>
        <mxCell id="R4OV0yaDhmhnuvs-qSDv-30" style="edgeStyle=orthogonalEdgeStyle;rounded=0;orthogonalLoop=1;jettySize=auto;html=1;" edge="1" parent="WIyWlLk6GJQsqaUBKTNV-1" source="R4OV0yaDhmhnuvs-qSDv-21">
          <mxGeometry relative="1" as="geometry">
            <mxPoint x="360" y="600" as="targetPoint" />
            <Array as="points">
              <mxPoint x="570" y="560" />
              <mxPoint x="360" y="560" />
            </Array>
          </mxGeometry>
        </mxCell>
        <mxCell id="R4OV0yaDhmhnuvs-qSDv-21" value="D=D+1" style="rounded=0;whiteSpace=wrap;html=1;" vertex="1" parent="WIyWlLk6GJQsqaUBKTNV-1">
          <mxGeometry x="510" y="470" width="120" height="60" as="geometry" />
        </mxCell>
        <mxCell id="R4OV0yaDhmhnuvs-qSDv-29" style="edgeStyle=orthogonalEdgeStyle;rounded=0;orthogonalLoop=1;jettySize=auto;html=1;" edge="1" parent="WIyWlLk6GJQsqaUBKTNV-1" source="R4OV0yaDhmhnuvs-qSDv-23">
          <mxGeometry relative="1" as="geometry">
            <mxPoint x="350" y="390" as="targetPoint" />
            <Array as="points">
              <mxPoint x="530" y="400" />
              <mxPoint x="350" y="400" />
            </Array>
          </mxGeometry>
        </mxCell>
        <mxCell id="R4OV0yaDhmhnuvs-qSDv-23" value="D=D+1" style="rounded=0;whiteSpace=wrap;html=1;" vertex="1" parent="WIyWlLk6GJQsqaUBKTNV-1">
          <mxGeometry x="490" y="290" width="120" height="60" as="geometry" />
        </mxCell>
        <mxCell id="R4OV0yaDhmhnuvs-qSDv-31" style="edgeStyle=orthogonalEdgeStyle;rounded=0;orthogonalLoop=1;jettySize=auto;html=1;" edge="1" parent="WIyWlLk6GJQsqaUBKTNV-1" source="R4OV0yaDhmhnuvs-qSDv-25">
          <mxGeometry relative="1" as="geometry">
            <mxPoint x="360" y="750" as="targetPoint" />
            <Array as="points">
              <mxPoint x="580" y="750" />
            </Array>
          </mxGeometry>
        </mxCell>
        <mxCell id="R4OV0yaDhmhnuvs-qSDv-25" value="D=D+1" style="rounded=0;whiteSpace=wrap;html=1;" vertex="1" parent="WIyWlLk6GJQsqaUBKTNV-1">
          <mxGeometry x="520" y="627.5" width="120" height="60" as="geometry" />
        </mxCell>
        <mxCell id="R4OV0yaDhmhnuvs-qSDv-34" style="edgeStyle=orthogonalEdgeStyle;rounded=0;orthogonalLoop=1;jettySize=auto;html=1;" edge="1" parent="WIyWlLk6GJQsqaUBKTNV-1" source="R4OV0yaDhmhnuvs-qSDv-32" target="R4OV0yaDhmhnuvs-qSDv-33">
          <mxGeometry relative="1" as="geometry" />
        </mxCell>
        <mxCell id="R4OV0yaDhmhnuvs-qSDv-32" value="D" style="shape=document;whiteSpace=wrap;html=1;boundedLbl=1;" vertex="1" parent="WIyWlLk6GJQsqaUBKTNV-1">
          <mxGeometry x="274" y="810" width="120" height="80" as="geometry" />
        </mxCell>
        <mxCell id="R4OV0yaDhmhnuvs-qSDv-33" value="END" style="ellipse;whiteSpace=wrap;html=1;" vertex="1" parent="WIyWlLk6GJQsqaUBKTNV-1">
          <mxGeometry x="274" y="940" width="120" height="80" as="geometry" />
        </mxCell>
        <mxCell id="R4OV0yaDhmhnuvs-qSDv-35" value="" style="rounded=0;whiteSpace=wrap;html=1;" vertex="1" parent="WIyWlLk6GJQsqaUBKTNV-1">
          <mxGeometry x="670" y="120" width="120" height="60" as="geometry" />
        </mxCell>
      </root>
    </mxGraphModel>
  </diagram>
  <diagram id="X1BnGwNqGEwaf_u0XCjV" name="Page-2">
    <mxGraphModel dx="1434" dy="739" grid="1" gridSize="10" guides="1" tooltips="1" connect="1" arrows="1" fold="1" page="1" pageScale="1" pageWidth="850" pageHeight="1100" math="0" shadow="0">
      <root>
        <mxCell id="0" />
        <mxCell id="1" parent="0" />
        <mxCell id="7GSgUPYrtI29QUtsk68D-1" value="VERILMIS 3 EDEDDEN TEK OLANLARIN SAYINI" style="rounded=0;whiteSpace=wrap;html=1;" vertex="1" parent="1">
          <mxGeometry x="10" y="20" width="180" height="90" as="geometry" />
        </mxCell>
        <mxCell id="7GSgUPYrtI29QUtsk68D-4" style="edgeStyle=orthogonalEdgeStyle;rounded=0;orthogonalLoop=1;jettySize=auto;html=1;" edge="1" parent="1" source="7GSgUPYrtI29QUtsk68D-2">
          <mxGeometry relative="1" as="geometry">
            <mxPoint x="400" y="170" as="targetPoint" />
          </mxGeometry>
        </mxCell>
        <mxCell id="7GSgUPYrtI29QUtsk68D-2" value="START" style="ellipse;whiteSpace=wrap;html=1;" vertex="1" parent="1">
          <mxGeometry x="340" y="40" width="120" height="70" as="geometry" />
        </mxCell>
        <mxCell id="7GSgUPYrtI29QUtsk68D-7" style="edgeStyle=orthogonalEdgeStyle;rounded=0;orthogonalLoop=1;jettySize=auto;html=1;" edge="1" parent="1" source="7GSgUPYrtI29QUtsk68D-5" target="7GSgUPYrtI29QUtsk68D-6">
          <mxGeometry relative="1" as="geometry" />
        </mxCell>
        <mxCell id="7GSgUPYrtI29QUtsk68D-5" value="A, B, C" style="rounded=0;whiteSpace=wrap;html=1;" vertex="1" parent="1">
          <mxGeometry x="340" y="170" width="120" height="60" as="geometry" />
        </mxCell>
        <mxCell id="7GSgUPYrtI29QUtsk68D-10" value="TRUE" style="edgeStyle=orthogonalEdgeStyle;rounded=0;orthogonalLoop=1;jettySize=auto;html=1;entryX=0;entryY=0.5;entryDx=0;entryDy=0;" edge="1" parent="1" source="7GSgUPYrtI29QUtsk68D-6" target="7GSgUPYrtI29QUtsk68D-8">
          <mxGeometry relative="1" as="geometry" />
        </mxCell>
        <mxCell id="7GSgUPYrtI29QUtsk68D-12" value="FALSE" style="edgeStyle=orthogonalEdgeStyle;rounded=0;orthogonalLoop=1;jettySize=auto;html=1;entryX=0.5;entryY=0;entryDx=0;entryDy=0;" edge="1" parent="1" source="7GSgUPYrtI29QUtsk68D-6" target="7GSgUPYrtI29QUtsk68D-9">
          <mxGeometry relative="1" as="geometry" />
        </mxCell>
        <mxCell id="7GSgUPYrtI29QUtsk68D-6" value="A%2==1" style="rhombus;whiteSpace=wrap;html=1;" vertex="1" parent="1">
          <mxGeometry x="360" y="280" width="80" height="80" as="geometry" />
        </mxCell>
        <mxCell id="7GSgUPYrtI29QUtsk68D-13" style="edgeStyle=orthogonalEdgeStyle;rounded=0;orthogonalLoop=1;jettySize=auto;html=1;" edge="1" parent="1" source="7GSgUPYrtI29QUtsk68D-8">
          <mxGeometry relative="1" as="geometry">
            <mxPoint x="400" y="380" as="targetPoint" />
            <Array as="points">
              <mxPoint x="640" y="380" />
            </Array>
          </mxGeometry>
        </mxCell>
        <mxCell id="7GSgUPYrtI29QUtsk68D-8" value="COUNT=O+1" style="rounded=0;whiteSpace=wrap;html=1;" vertex="1" parent="1">
          <mxGeometry x="580" y="290" width="120" height="60" as="geometry" />
        </mxCell>
        <mxCell id="7GSgUPYrtI29QUtsk68D-15" value="TRUE" style="edgeStyle=orthogonalEdgeStyle;rounded=0;orthogonalLoop=1;jettySize=auto;html=1;entryX=0;entryY=0.5;entryDx=0;entryDy=0;" edge="1" parent="1" source="7GSgUPYrtI29QUtsk68D-9" target="7GSgUPYrtI29QUtsk68D-14">
          <mxGeometry relative="1" as="geometry" />
        </mxCell>
        <mxCell id="7GSgUPYrtI29QUtsk68D-17" value="FALSE" style="edgeStyle=orthogonalEdgeStyle;rounded=0;orthogonalLoop=1;jettySize=auto;html=1;entryX=0.5;entryY=0;entryDx=0;entryDy=0;" edge="1" parent="1" source="7GSgUPYrtI29QUtsk68D-9" target="7GSgUPYrtI29QUtsk68D-16">
          <mxGeometry relative="1" as="geometry" />
        </mxCell>
        <mxCell id="7GSgUPYrtI29QUtsk68D-9" value="B%2==1" style="rhombus;whiteSpace=wrap;html=1;" vertex="1" parent="1">
          <mxGeometry x="360" y="470" width="80" height="80" as="geometry" />
        </mxCell>
        <mxCell id="7GSgUPYrtI29QUtsk68D-19" style="edgeStyle=orthogonalEdgeStyle;rounded=0;orthogonalLoop=1;jettySize=auto;html=1;" edge="1" parent="1" source="7GSgUPYrtI29QUtsk68D-14">
          <mxGeometry relative="1" as="geometry">
            <mxPoint x="400" y="580" as="targetPoint" />
            <Array as="points">
              <mxPoint x="630" y="560" />
              <mxPoint x="400" y="560" />
            </Array>
          </mxGeometry>
        </mxCell>
        <mxCell id="7GSgUPYrtI29QUtsk68D-14" value="COUNT=COUNT+1" style="rounded=0;whiteSpace=wrap;html=1;" vertex="1" parent="1">
          <mxGeometry x="570" y="480" width="120" height="60" as="geometry" />
        </mxCell>
        <mxCell id="7GSgUPYrtI29QUtsk68D-20" value="TRUE" style="edgeStyle=orthogonalEdgeStyle;rounded=0;orthogonalLoop=1;jettySize=auto;html=1;" edge="1" parent="1" source="7GSgUPYrtI29QUtsk68D-16">
          <mxGeometry relative="1" as="geometry">
            <mxPoint x="560" y="640" as="targetPoint" />
          </mxGeometry>
        </mxCell>
        <mxCell id="YZV7T2EX02Lhw2Aa6Z9m-2" style="edgeStyle=orthogonalEdgeStyle;rounded=0;orthogonalLoop=1;jettySize=auto;html=1;" edge="1" parent="1" source="7GSgUPYrtI29QUtsk68D-16" target="YZV7T2EX02Lhw2Aa6Z9m-1">
          <mxGeometry relative="1" as="geometry" />
        </mxCell>
        <mxCell id="7GSgUPYrtI29QUtsk68D-16" value="B%2==1" style="rhombus;whiteSpace=wrap;html=1;" vertex="1" parent="1">
          <mxGeometry x="360" y="600" width="80" height="80" as="geometry" />
        </mxCell>
        <mxCell id="YZV7T2EX02Lhw2Aa6Z9m-3" style="edgeStyle=orthogonalEdgeStyle;rounded=0;orthogonalLoop=1;jettySize=auto;html=1;" edge="1" parent="1" source="7GSgUPYrtI29QUtsk68D-18">
          <mxGeometry relative="1" as="geometry">
            <mxPoint x="400" y="710" as="targetPoint" />
            <Array as="points">
              <mxPoint x="630" y="700" />
              <mxPoint x="400" y="700" />
            </Array>
          </mxGeometry>
        </mxCell>
        <mxCell id="7GSgUPYrtI29QUtsk68D-18" value="COUNT=COUNT+1" style="rounded=0;whiteSpace=wrap;html=1;" vertex="1" parent="1">
          <mxGeometry x="570" y="600" width="120" height="60" as="geometry" />
        </mxCell>
        <mxCell id="YZV7T2EX02Lhw2Aa6Z9m-5" style="edgeStyle=orthogonalEdgeStyle;rounded=0;orthogonalLoop=1;jettySize=auto;html=1;" edge="1" parent="1" source="YZV7T2EX02Lhw2Aa6Z9m-1" target="YZV7T2EX02Lhw2Aa6Z9m-4">
          <mxGeometry relative="1" as="geometry" />
        </mxCell>
        <mxCell id="YZV7T2EX02Lhw2Aa6Z9m-1" value="COUNT" style="shape=document;whiteSpace=wrap;html=1;boundedLbl=1;" vertex="1" parent="1">
          <mxGeometry x="340" y="720" width="120" height="80" as="geometry" />
        </mxCell>
        <mxCell id="YZV7T2EX02Lhw2Aa6Z9m-4" value="END" style="ellipse;whiteSpace=wrap;html=1;" vertex="1" parent="1">
          <mxGeometry x="340" y="850" width="120" height="80" as="geometry" />
        </mxCell>
      </root>
    </mxGraphModel>
  </diagram>
</mxfile>
